<svg width="129" height="124" viewBox="0 0 129 124" fill="none" xmlns="http://www.w3.org/2000/svg">
<path d="M30.1035 5.99991C17.1921 5.99991 6.72464 16.1162 6.72464 28.5994V95.3981C6.72464 107.879 17.1921 118 30.1035 118H99.2079C112.119 118 122.587 107.879 122.587 95.3981V28.5994C122.587 16.1162 112.119 5.99991 99.2079 5.99991H30.1035Z" fill="url(#paint0_linear)"/>
<path d="M99.4552 81.9421C97.8609 82.233 96.2519 82.3832 94.6794 82.3832H79.4999H50.8056V89.8537C50.8056 96.8643 57.307 105.846 69.7369 109.447C71.5133 109.963 73.3747 110.224 75.2627 110.224C77.226 110.224 79.2038 109.942 81.1404 109.389C98.669 103.699 111.4 89.7246 115.198 72.6837C111.402 77.5053 105.835 80.783 99.4552 81.9421Z" fill="white"/>
<path d="M19.1187 81.9701C19.1309 84.4384 19.8977 86.9348 21.395 89.3914C21.5601 89.6612 21.7275 89.931 21.9047 90.1914C27.2873 98.096 35.0748 104.264 44.4252 108.03C44.7188 108.15 45.0173 108.262 45.3158 108.375L45.4323 108.42C45.6725 108.513 45.9055 108.603 46.1409 108.689C52.0647 110.885 58.2918 112 64.6475 112C66.5355 112 68.4406 111.894 70.3383 111.693C69.9355 111.601 69.535 111.495 69.1395 111.383C58.9907 108.443 48.7157 100.102 48.7157 89.8512V81.3695L48.7181 62.5431C48.7181 59.7557 45.9395 57.9937 40.4647 55.631L40.0351 55.9196C33.2256 60.476 19.0556 69.9573 19.1187 81.9701Z" fill="white"/>
<path d="M39.7433 53.6555L63.1666 37.6469L49.9795 28.3886C46.3029 25.9297 42.818 24.7777 39.0298 24.7777C38.7726 24.7777 38.5129 24.7824 38.2533 24.7941C36.5642 24.8622 34.7854 25.1578 32.8221 25.6904C32.4751 25.7843 32.1378 25.8945 31.798 26.0072L31.6476 26.0541L31.5651 26.0799C31.1938 26.2089 30.8273 26.3567 30.4657 26.5093L30.4463 26.5186L30.3638 26.5515C27.9856 27.5838 25.8112 29.1347 24.0518 31.0446C16.7908 39.9134 12.9323 50.6335 12.9323 62.0011C12.9323 68.7607 14.3325 75.3772 17.0287 81.5103C17.3126 68.6622 31.8272 58.951 38.8454 54.2585L39.7433 53.6555Z" fill="white"/>
<path d="M116.297 64.7839L116.307 64.6361L116.317 64.4813C116.358 63.6554 116.38 62.8107 116.38 62.0013C116.38 50.4436 112.198 39.2754 104.717 30.4089C104.925 31.6149 104.959 32.8889 104.816 34.231C103.95 42.3631 96.2666 51.6074 89.6464 55.5115L89.5881 55.5444L89.5275 55.5702C84.0818 57.9071 81.1284 59.7113 81.1284 62.5456V80.349H94.7232C102.343 80.349 109.502 76.8601 113.873 71.0156C115.217 69.2184 116.052 67.0927 116.292 64.8637L116.297 64.7839Z" fill="white"/>
<path d="M99.3721 24.9748L99.2969 24.9067C89.7791 16.5846 77.4681 12 64.6231 12C52.0015 12 40.0908 16.364 30.7696 24.2052C31.2574 24.0316 31.7524 23.8767 32.2548 23.7407C34.701 23.0767 36.9166 22.7505 39.0303 22.7505C43.2068 22.7505 47.1843 24.0551 51.1909 26.7368L89.2258 53.3692C95.2588 49.5096 101.986 41.2179 102.738 33.9891C103.114 30.3735 101.983 27.3398 99.3721 24.9748Z" fill="white"/>
<defs>
<linearGradient id="paint0_linear" x1="6.72497" y1="62.0004" x2="122.587" y2="62.0004" gradientUnits="userSpaceOnUse">
<stop stop-color="#F7AD57"/>
<stop offset="1" stop-color="#F18020"/>
</linearGradient>
</defs>
</svg>
