<svg width="128" height="128" viewBox="0 0 128 128" fill="none" xmlns="http://www.w3.org/2000/svg">
<path d="M29.5948 6.19354C16.9162 6.19354 6.63693 16.6308 6.63693 29.5097V98.4306C6.63693 111.309 16.9162 121.749 29.5948 121.749H97.4568C110.135 121.749 120.415 111.307 120.415 98.4306V29.5097C120.417 16.6308 110.138 6.19354 97.4591 6.19354H29.5948Z" fill="url(#paint0_linear)"/>
<path d="M98.0296 84.173C96.4695 84.4685 94.8976 84.6174 93.3588 84.6174H78.5142H50.4536V92.175C50.4536 99.2669 56.8122 108.354 68.9668 111.997C70.7042 112.517 72.5243 112.782 74.3728 112.782C76.2946 112.782 78.2281 112.498 80.1215 111.938C97.2637 106.182 109.714 92.045 113.43 74.8093C109.714 79.6838 104.27 83.0005 98.0296 84.173Z" fill="white"/>
<path d="M19.4577 84.2011C19.4696 86.6975 20.2189 89.2246 21.6844 91.7067C21.8452 91.981 22.0106 92.2528 22.1832 92.5152C27.4474 100.513 35.0635 106.751 44.2066 110.562C44.495 110.682 44.7858 110.798 45.0765 110.912L45.19 110.957C45.4263 111.051 45.6533 111.141 45.8826 111.231C51.6762 113.453 57.7653 114.581 63.9821 114.581C65.8282 114.581 67.6909 114.474 69.5488 114.268C69.1541 114.176 68.764 114.07 68.3764 113.954C58.4508 110.98 48.4024 102.543 48.4024 92.1724V83.5912L48.4047 64.5471C48.4047 61.7269 45.6864 59.9444 40.3324 57.5568L39.9116 57.8476C33.2552 62.4597 19.3986 72.048 19.4577 84.2011Z" fill="white"/>
<path d="M39.6337 55.5596L62.5412 39.364L49.6443 29.9956C46.049 27.5087 42.6404 26.3432 38.9364 26.3432C38.6835 26.3432 38.4305 26.348 38.1776 26.3598C36.5253 26.4307 34.7856 26.7262 32.8662 27.2675C32.5281 27.3621 32.1972 27.4756 31.8663 27.589L31.7197 27.6363L31.6394 27.6623C31.2753 27.7947 30.9184 27.9413 30.5638 28.0973L30.5449 28.1068L30.4645 28.1398C28.1386 29.1824 26.0112 30.7544 24.2927 32.6858C17.1919 41.657 13.4193 52.5006 13.4193 64.0013C13.4193 70.8403 14.7879 77.5327 17.4235 83.7357C17.7001 70.7386 31.8946 60.9163 38.7591 56.1671L39.6337 55.5596Z" fill="white"/>
<path d="M114.5 66.8144L114.509 66.6655L114.519 66.5095C114.559 65.6726 114.58 64.8192 114.58 64.0013C114.58 52.3091 110.491 41.0117 103.173 32.0428C103.376 33.2626 103.411 34.5533 103.272 35.9078C102.423 44.1345 94.9112 53.4863 88.4368 57.4342L88.38 57.4673L88.3209 57.4933C82.9953 59.8572 80.1068 61.6822 80.1068 64.5497V82.5608H93.4031C100.856 82.5608 107.855 79.0314 112.131 73.1191C113.446 71.3012 114.264 69.15 114.498 66.8948L114.5 66.8144Z" fill="white"/>
<path d="M97.9459 26.5465L97.8726 26.4756C88.5663 18.0575 76.5252 13.4193 63.964 13.4193C51.6203 13.4193 39.9715 17.8352 30.8567 25.7664C31.3342 25.5914 31.8188 25.433 32.3105 25.2959C34.7026 24.6246 36.8702 24.296 38.9385 24.296C43.0232 24.296 46.9116 25.6151 50.8308 28.3289L88.0298 55.2711C93.9298 51.3682 100.508 42.9808 101.243 35.6667C101.607 32.0049 100.499 28.9388 97.9459 26.5465Z" fill="white"/>
<defs>
<linearGradient id="paint0_linear" x1="3.49971" y1="28.7736" x2="124.476" y2="97.5462" gradientUnits="userSpaceOnUse">
<stop stop-color="#094D79"/>
<stop offset="0.31" stop-color="#16A387"/>
<stop offset="0.6899" stop-color="#F2CF80"/>
<stop offset="1" stop-color="#E97625"/>
</linearGradient>
</defs>
</svg>
