<svg width="97" height="98" viewBox="0 0 97 98" fill="none" xmlns="http://www.w3.org/2000/svg">
<path d="M48.388 97.388C75.112 97.388 96.776 75.724 96.776 49C96.776 22.276 75.112 0.612 48.388 0.612C21.664 0.612 0 22.276 0 49C0 75.724 21.664 97.388 48.388 97.388Z" fill="#D8F2F0"/>
<path d="M48.1879 95.9197C42.1047 95.8268 36.1182 94.3821 30.6622 91.6903C25.2062 88.9984 20.4171 85.1267 16.6419 80.3557L16.3879 80.0517L16.4479 79.6517C17.0547 74.7535 18.7752 70.0594 21.4776 65.9293C24.18 61.7992 27.7925 58.343 32.0379 55.8257L32.6379 55.4837L33.1159 55.9797C35.0636 58.0145 37.4031 59.6338 39.9934 60.74C42.5838 61.8463 45.3713 62.4166 48.1879 62.4166C51.0046 62.4166 53.7921 61.8463 56.3824 60.74C58.9728 59.6338 61.3123 58.0145 63.2599 55.9797L63.7379 55.4837L64.3379 55.8257C68.5843 58.3444 72.1973 61.8022 74.8998 65.9341C77.6022 70.0659 79.3222 74.7619 79.9279 79.6617L79.9899 80.0617L79.7339 80.3657C75.9579 85.135 71.1684 89.0048 65.7124 91.695C60.2564 94.3851 54.2704 95.8282 48.1879 95.9197ZM48.5279 56.1437C44.81 56.122 41.1817 54.9996 38.1009 52.9182C35.0201 50.8367 32.6248 47.8895 31.2171 44.4482C29.8094 41.007 29.4525 37.2259 30.1913 33.582C30.93 29.9381 32.7315 26.5947 35.3683 23.9734C38.0051 21.3522 41.3592 19.5706 45.0074 18.8535C48.6556 18.1363 52.4345 18.5157 55.8674 19.9438C59.3002 21.3719 62.2332 23.7847 64.2963 26.8778C66.3594 29.9708 67.4603 33.6057 67.4599 37.3237C67.4393 42.3281 65.4345 47.1201 61.8853 50.6482C58.3361 54.1764 53.5324 56.1528 48.5279 56.1437V56.1437Z" stroke="#005E52"/>
</svg>
