<svg width="157" height="66" viewBox="0 0 157 66" fill="none" xmlns="http://www.w3.org/2000/svg">
<path d="M69.9988 20.2338C72.4584 20.2338 74.5484 21.0791 76.2385 22.7321C77.9286 24.3851 78.7698 26.4419 78.7698 28.8647C78.7698 31.2876 77.9248 33.3444 76.2385 34.9974C74.5522 36.6466 72.4584 37.4957 69.9988 37.4957H65.4831V45.938H60.4166V20.2338H69.9988ZM69.9988 32.7519C72.1642 32.7519 73.7411 31.0649 73.7411 28.861C73.7411 26.6193 72.1642 24.97 69.9988 24.97H65.4831V32.7519H69.9988Z" fill="#E87A26"/>
<path d="M86.5353 41.0885H97.3624V45.9342H81.4727V20.2338H97.3624V25.0795H86.5353V30.5479H96.2608V35.3219H86.5353V41.0885Z" fill="#E87A26"/>
<path d="M114.934 20.2338H120V45.9305H116.148L105.136 30.2196V45.9305H100.07V20.2338H103.922L114.934 35.9107V20.2338Z" fill="#E87A26"/>
<path d="M18.4739 20.1244V24.9777H11.9852V45.8664H6.91122V24.9777H0V20.1244H18.4739Z" fill="#E87A26"/>
<path d="M57.6267 34.1066C57.54 34.9633 57.2306 35.7785 56.7251 36.4804C55.3255 38.4164 53.311 39.4543 51.387 39.8166C50.8476 39.9185 50.3156 39.9675 49.8063 39.9675C48.0974 39.9675 46.3394 39.9675 44.5663 39.9675H44.5626C41.1183 39.9675 37.6099 39.9675 34.2976 39.9675V42.998C34.2976 46.4059 37.6174 49.3042 41.0919 50.3458C42.4462 50.7534 43.8835 50.727 45.2378 50.327C52.1415 48.006 57.2118 41.6658 57.6343 34.0802C57.6305 34.0877 57.6305 34.0953 57.6267 34.1066Z" fill="url(#paint0_linear)"/>
<path d="M42.6729 50.98C43.5406 50.8215 44.3894 50.6064 45.208 50.3309C43.865 50.7234 42.4352 50.7498 41.0884 50.346C37.6102 49.3044 34.2942 46.4098 34.2942 42.9981V39.9677V33.2425C34.2942 31.9103 32.8908 31.1744 31.0423 30.3593C28.907 31.8462 23.3237 35.4842 23.3464 40.1828C23.3502 41.1867 23.6746 42.1528 24.1839 43.017C24.2442 43.1189 24.3046 43.2208 24.3687 43.3189C26.3229 46.289 29.1259 48.5005 32.3098 49.829C32.4268 49.878 32.5475 49.9233 32.6645 49.9724C32.7474 50.0063 32.8304 50.0365 32.9134 50.0705C34.9393 50.8479 37.1349 51.2781 39.4361 51.2781" fill="url(#paint1_linear)"/>
<path d="M34.5834 20.7396C33.0895 19.7055 31.7163 19.3281 30.3054 19.3848C29.664 19.4112 29.0152 19.5282 28.3474 19.7169C28.2192 19.7508 28.0984 19.7961 27.974 19.8376C27.9438 19.8489 27.9174 19.8565 27.8872 19.864C27.7514 19.9131 27.6193 19.9697 27.4873 20.0263C27.4722 20.0339 27.4571 20.0376 27.442 20.0452C26.5668 20.4377 25.7859 21.0189 25.1483 21.7397C22.6887 24.8456 21.2174 28.7705 21.2174 33.0426C21.2174 36.7411 22.3228 40.1829 24.2165 43.0548C24.209 43.0397 24.1977 43.0284 24.1901 43.0133C23.6808 42.1491 23.3602 41.183 23.3526 40.1791C23.33 35.4843 28.9058 31.8463 31.0448 30.3556L39.548 24.3437L34.5834 20.7396Z" fill="url(#paint2_linear)"/>
<path d="M44.767 39.9638V33.2387C44.767 31.9405 46.1024 31.2045 47.8831 30.4158C50.9124 28.5666 55.1451 22.8038 51.6744 19.5506C51.6706 19.5469 51.6706 19.5469 51.6669 19.5431C55.3488 22.8755 57.6614 27.6872 57.6614 33.0462C57.6614 33.3519 57.6538 33.6576 57.6387 33.9595C57.635 33.9972 57.635 34.035 57.6312 34.0765C57.6312 34.0878 57.6312 34.0991 57.6274 34.1067C57.5407 34.9634 57.2313 35.7785 56.7258 36.4805C54.9376 38.9524 52.1384 39.9638 49.8183 39.9638C48.1094 39.9638 46.3476 39.9638 44.5708 39.9638" fill="url(#paint3_linear)"/>
<path d="M51.67 19.5507C51.6662 19.547 51.6663 19.547 51.6625 19.5432C48.4294 16.6071 44.1363 14.8182 39.4245 14.8182C33.6035 14.8182 28.4277 17.5506 25.0928 21.8C25.9529 20.8112 27.0809 20.0791 28.3447 19.7206C30.4874 19.1167 32.4077 19.2375 34.5806 20.7395L47.9088 30.397C50.9344 28.5289 55.1294 22.7925 51.67 19.5507Z" fill="url(#paint4_linear)"/>
<path d="M140.338 33.2L149.088 21H141.688L136.638 28.05L131.588 21H124.138L132.888 33.25L123.738 46H131.188L136.638 38.4L142.038 46H149.488L140.338 33.2Z" fill="#8C8C8C"/>
<defs>
<linearGradient id="paint0_linear" x1="30.6083" y1="42.3561" x2="59.9167" y2="42.3561" gradientUnits="userSpaceOnUse">
<stop stop-color="#273673"/>
<stop offset="0.5" stop-color="#0F80C4"/>
<stop offset="1" stop-color="#6FC7EB"/>
</linearGradient>
<linearGradient id="paint1_linear" x1="37.9216" y1="56.8513" x2="28.6975" y2="28.4733" gradientUnits="userSpaceOnUse">
<stop stop-color="#ACD7D5"/>
<stop offset="0.5" stop-color="#01AC8C"/>
<stop offset="1" stop-color="#005F53"/>
</linearGradient>
<linearGradient id="paint2_linear" x1="19.2611" y1="36.2391" x2="38.1941" y2="22.4887" gradientUnits="userSpaceOnUse">
<stop stop-color="#EE8F96"/>
<stop offset="0.5" stop-color="#E6403A"/>
<stop offset="1" stop-color="#B22226"/>
</linearGradient>
<linearGradient id="paint3_linear" x1="56.5326" y1="17.2846" x2="48.0038" y2="43.5236" gradientUnits="userSpaceOnUse">
<stop stop-color="#DFE0E0"/>
<stop offset="0.5" stop-color="#8D9E95"/>
<stop offset="1" stop-color="#495852"/>
</linearGradient>
<linearGradient id="paint4_linear" x1="28.2468" y1="15.3242" x2="51.6204" y2="26.72" gradientUnits="userSpaceOnUse">
<stop stop-color="#F9E5A9"/>
<stop offset="0.7" stop-color="#EF952F"/>
<stop offset="1" stop-color="#D57828"/>
</linearGradient>
</defs>
</svg>
