<svg width="24" height="16" viewBox="0 0 24 16" fill="none" xmlns="http://www.w3.org/2000/svg">
<g clip-path="url(#clip0)">
<rect width="24" height="16" fill="white"/>
<path d="M24 9.2332C23.9609 9.23243 23.922 9.23063 23.8828 9.23063C20.3447 9.23038 16.8066 9.23038 13.2682 9.23038C13.2255 9.23038 13.1829 9.23038 13.1271 9.23038C13.1271 11.4864 13.1271 13.7352 13.1271 15.9927C12.3738 15.9927 11.6339 15.9927 10.8806 15.9927C10.8806 13.7444 10.8806 11.4954 10.8806 9.23858C10.834 9.23525 10.8002 9.23089 10.7665 9.23089C7.20117 9.23063 3.63562 9.23063 0.0703125 9.23063C0.046875 9.23063 0.0234375 9.23217 0 9.2332C0 8.41255 0 7.59191 0 6.77126C0.0389063 6.77203 0.0780469 6.77383 0.116953 6.77383C3.65906 6.77383 7.20117 6.77383 10.7433 6.77383C10.782 6.77383 10.8206 6.77383 10.8727 6.77383C10.8727 4.51808 10.8727 2.269 10.8727 0.0117188C11.6259 0.0117188 12.3659 0.0117188 13.1191 0.0117188C13.1191 2.26003 13.1191 4.50911 13.1191 6.76588C13.1655 6.76921 13.1993 6.77383 13.2333 6.77383C16.8028 6.77408 20.3721 6.77408 23.9416 6.77408C23.9611 6.77408 23.9805 6.77255 24 6.77152C24 7.59191 24 8.41255 24 9.2332Z" fill="#BE2E32"/>
<path d="M0 10.0527C0.0428906 10.0548 0.0855469 10.0586 0.128438 10.0586C2.295 10.0589 4.46156 10.0589 6.62812 10.0589C6.66609 10.0589 6.70383 10.0589 6.76711 10.0589C6.73477 10.0884 6.72281 10.102 6.70852 10.1117C4.48945 11.6294 2.27039 13.1466 0.0510937 14.6635C0.0346875 14.6748 0.0171094 14.6842 0 14.6945C0 13.1473 0 11.5999 0 10.0527Z" fill="#062777"/>
<path d="M23.9997 5.95062C23.9451 5.94857 23.8907 5.94446 23.8361 5.94446C21.6883 5.94421 19.5407 5.94421 17.3929 5.94421C17.3514 5.94421 17.3099 5.94421 17.2422 5.94421C17.2905 5.90625 17.3165 5.88343 17.3446 5.86419C19.5318 4.36293 21.7192 2.86166 23.9069 1.36091C23.9362 1.34091 23.9685 1.32603 23.9995 1.30859C23.9997 2.85602 23.9997 4.40345 23.9997 5.95062Z" fill="#062777"/>
<path d="M0.000234375 1.46094C0.205547 1.59096 0.412734 1.7179 0.615938 1.85151C2.65523 3.19147 4.69406 4.53246 6.73266 5.87344C6.75773 5.88985 6.78141 5.90883 6.82781 5.94242C6.75867 5.94242 6.71695 5.94242 6.67547 5.94242C4.48922 5.94242 2.30297 5.94242 0.116719 5.94268C0.0778125 5.94268 0.0389063 5.94653 0 5.94858C0.000234375 4.45296 0.000234375 2.95682 0.000234375 1.46094Z" fill="#062777"/>
<path d="M23.9999 14.5406C22.5011 13.5425 21.002 12.5442 19.503 11.5463C18.8001 11.0783 18.0967 10.611 17.3938 10.1433C17.3643 10.1235 17.3359 10.1015 17.2773 10.0591C17.3486 10.0591 17.3887 10.0591 17.429 10.0591C19.5686 10.0591 21.7084 10.0591 23.848 10.0589C23.8987 10.0589 23.9493 10.055 23.9999 10.0527C23.9999 11.5486 23.9999 13.0448 23.9999 14.5406Z" fill="#062777"/>
<path d="M0 0C0.978516 0.643693 1.9568 1.28739 2.93531 1.93108C4.92914 3.24231 6.9232 4.55355 8.91703 5.86504C8.94609 5.88402 8.97398 5.90505 9.03375 5.94711C8.96695 5.94711 8.93438 5.94711 8.9018 5.94711C8.49961 5.94711 8.09742 5.94967 7.69523 5.9448C7.63289 5.94403 7.56328 5.92403 7.51008 5.88915C5.24766 4.40481 2.98688 2.9179 0.725859 1.43151C0.518906 1.29534 0.311953 1.15865 0.104297 1.02401C0.0719531 1.00298 0.0349219 0.990671 0 0.974515C0 0.649591 0 0.324924 0 0Z" fill="#BE2E32"/>
<path d="M23.9997 15.9754C23.6655 15.7571 23.3298 15.5415 22.9975 15.3201C20.4037 13.5947 17.8103 11.8686 15.217 10.1421C15.1848 10.1208 15.1546 10.0962 15.0977 10.0539C15.3948 10.0539 15.6639 10.0767 15.9285 10.0488C16.3455 10.0047 16.6874 10.1524 17.0402 10.3901C19.3363 11.9376 21.644 13.4647 23.9481 14.9983C23.9645 15.0093 23.9826 15.0173 23.9999 15.0268C23.9997 15.3427 23.9997 15.6592 23.9997 15.9754Z" fill="#BE2E32"/>
<path d="M13.8867 0.0136719C16.5253 0.0136719 19.155 0.0136719 21.8177 0.0136719C19.1611 1.83704 16.5305 3.64297 13.8867 5.45762C13.8867 3.6322 13.8867 1.83063 13.8867 0.0136719Z" fill="#062777"/>
<path d="M2.01172 0.0117188C4.73445 0.0117188 7.41992 0.0117188 10.1117 0.0117188C10.1117 1.78405 10.1117 3.54997 10.1117 5.33539C7.41336 3.56203 4.72742 1.79662 2.01172 0.0117188Z" fill="#062777"/>
<path d="M13.9375 5.92121C13.9848 5.88762 14.0315 5.853 14.0793 5.82017C16.8693 3.90499 19.6591 1.9893 22.4509 0.0774517C22.5184 0.0312904 22.6089 0.00590174 22.6891 0.00436303C23.0988 -0.00281761 23.5084 0.00102916 23.9462 0.00102916C23.894 0.0420614 23.8626 0.0697582 23.8288 0.0928388C21.0152 2.02443 18.2015 3.95551 15.3864 5.88428C15.3339 5.92019 15.2645 5.94224 15.2027 5.94301C14.8162 5.94814 14.4295 5.94558 14.0427 5.94558C14.0097 5.94558 13.9766 5.94558 13.9436 5.94558C13.9415 5.93737 13.9396 5.92916 13.9375 5.92121Z" fill="#BE2E32"/>
<path d="M13.8867 15.9886C13.8867 14.1812 13.8867 12.3875 13.8867 10.5703C16.6001 12.3762 19.3005 14.174 22.0268 15.9886C19.2956 15.9886 16.5961 15.9886 13.8867 15.9886Z" fill="#062777"/>
<path d="M10.1122 15.9885C7.47383 15.9885 4.8432 15.9885 2.17578 15.9885C4.83477 14.1705 7.46703 12.371 10.1122 10.5625C10.1122 12.3797 10.1122 14.1767 10.1122 15.9885Z" fill="#062777"/>
<path d="M10.0928 10.0783C9.82633 10.2607 9.55984 10.4432 9.29312 10.6253C6.70117 12.3977 4.10945 14.17 1.51727 15.9416C1.48187 15.9657 1.44109 15.9965 1.40266 15.9967C0.958984 16.0006 0.515078 15.9993 0.0390625 15.9993C0.094375 15.9572 0.123203 15.9331 0.154141 15.9121C2.98023 13.9792 5.80609 12.0463 8.63359 10.1158C8.68609 10.0801 8.7557 10.0586 8.81734 10.0578C9.23898 10.0529 9.66086 10.0552 10.0825 10.0552C10.086 10.0629 10.0895 10.0706 10.0928 10.0783Z" fill="#BE2E32"/>
</g>
<defs>
<clipPath id="clip0">
<rect width="24" height="16" fill="white"/>
</clipPath>
</defs>
</svg>
