<svg width="24" height="24" viewBox="0 0 24 24" fill="none" xmlns="http://www.w3.org/2000/svg">
<path d="M7.55469 11V7.44444C7.55469 6.2657 8.02294 5.13524 8.85644 4.30175C9.68993 3.46825 10.8204 3 11.9991 3C13.1779 3 14.3083 3.46825 15.1418 4.30175C15.9753 5.13524 16.4436 6.2657 16.4436 7.44444V11" fill="#FEF7F0"/>
<path d="M7.55469 11V7.44444C7.55469 6.2657 8.02294 5.13524 8.85644 4.30175C9.68993 3.46825 10.8204 3 11.9991 3C13.1779 3 14.3083 3.46825 15.1418 4.30175C15.9753 5.13524 16.4436 6.2657 16.4436 7.44444V11" stroke="url(#paint0_linear)" stroke-width="1.5" stroke-linecap="round" stroke-linejoin="round"/>
<path d="M18.2222 11H5.77778C4.79594 11 4 11.814 4 12.8182V19.1818C4 20.186 4.79594 21 5.77778 21H18.2222C19.2041 21 20 20.186 20 19.1818V12.8182C20 11.814 19.2041 11 18.2222 11Z" fill="url(#paint1_linear)" stroke="url(#paint2_linear)" stroke-width="1.5" stroke-linecap="round" stroke-linejoin="round"/>
<defs>
<linearGradient id="paint0_linear" x1="11.9977" y1="10.999" x2="11.9977" y2="2.99804" gradientUnits="userSpaceOnUse">
<stop stop-color="#EE8022"/>
<stop offset="1" stop-color="#F4AB57"/>
</linearGradient>
<linearGradient id="paint1_linear" x1="11.9974" y1="20.9987" x2="11.9974" y2="10.9976" gradientUnits="userSpaceOnUse">
<stop stop-color="#EE8022"/>
<stop offset="1" stop-color="#F4AB57"/>
</linearGradient>
<linearGradient id="paint2_linear" x1="11.9974" y1="20.9987" x2="11.9974" y2="10.9976" gradientUnits="userSpaceOnUse">
<stop stop-color="#EE8022"/>
<stop offset="1" stop-color="#F4AB57"/>
</linearGradient>
</defs>
</svg>
