<svg width="24" height="24" viewBox="0 0 24 24" fill="none" xmlns="http://www.w3.org/2000/svg">
<path d="M18.2222 11H5.77778C4.79594 11 4 11.7959 4 12.7778V19C4 19.9818 4.79594 20.7778 5.77778 20.7778H18.2222C19.2041 20.7778 20 19.9818 20 19V12.7778C20 11.7959 19.2041 11 18.2222 11Z" stroke="#ADB1B1" stroke-width="1.5" stroke-linecap="round" stroke-linejoin="round"/>
<path d="M7.55469 11V7.44444C7.55469 6.2657 8.02294 5.13524 8.85644 4.30175C9.68993 3.46825 10.8204 3 11.9991 3C13.1779 3 14.3083 3.46825 15.1418 4.30175C15.9753 5.13524 16.4436 6.2657 16.4436 7.44444V11" stroke="#ADB1B1" stroke-width="1.5" stroke-linecap="round" stroke-linejoin="round"/>
</svg>
