<svg width="24" height="24" viewBox="0 0 24 24" fill="none" xmlns="http://www.w3.org/2000/svg">
<path d="M12.0289 21.2477C12.0191 21.2532 12.0094 21.2585 12 21.2637C11.9906 21.2585 11.9809 21.2532 11.9711 21.2477C11.7611 21.1315 11.4586 20.9576 11.0945 20.7301C10.3649 20.2741 9.39495 19.6069 8.42803 18.7608C6.46687 17.0448 4.65 14.7098 4.65 12V5.45045L12 2.6942L19.35 5.45045V12C19.35 14.7098 17.5331 17.0448 15.572 18.7608C14.605 19.6069 13.6351 20.2741 12.9055 20.7301C12.5414 20.9576 12.2389 21.1315 12.0289 21.2477Z" stroke="#ADB1B1" stroke-width="1.3" stroke-linecap="round" stroke-linejoin="round"/>
<path d="M13.9548 10.1793L11.3233 12.8108L10.0452 11.5327C9.80609 11.2936 9.41845 11.2936 9.17933 11.5327C8.94022 11.7718 8.94022 12.1594 9.17933 12.3986L10.8904 14.1096C11.1294 14.3486 11.5171 14.3487 11.7562 14.1096L14.8207 11.0452C15.0598 10.8061 15.0598 10.4184 14.8207 10.1793C14.5816 9.94021 14.1939 9.94024 13.9548 10.1793Z" fill="#ADB1B1" stroke="#ADB1B1" stroke-width="0.5"/>
</svg>
