<svg width="24" height="24" viewBox="0 0 24 24" fill="none" xmlns="http://www.w3.org/2000/svg">
<path d="M14.2287 13.4256C14.8199 12.9631 15.2514 12.3288 15.4632 11.611C15.6749 10.8932 15.6565 10.1277 15.4104 9.42078C15.1643 8.71391 14.7028 8.1009 14.0901 7.66703C13.4774 7.23315 12.7439 7 11.9918 7C11.2396 7 10.5061 7.23315 9.8934 7.66703C9.28068 8.1009 8.81917 8.71391 8.57308 9.42078C8.327 10.1277 8.30856 10.8932 8.52035 11.611C8.73214 12.3288 9.16362 12.9631 9.75476 13.4256C8.74183 13.8292 7.85801 14.4986 7.19753 15.3624C6.53705 16.2263 5.99115 17.9781 5.87082 19.0567C5.86211 19.1354 5.86909 19.2151 5.89134 19.2912C5.9136 19.3672 5.9507 19.4382 6.00053 19.5C6.10117 19.6248 6.24755 19.7048 6.40746 19.7223C6.56738 19.7398 6.72773 19.6934 6.85325 19.5933C6.97876 19.4932 7.05916 19.3476 7.07675 19.1886C7.20915 18.0164 7.90468 16.2079 8.78895 15.4217C9.67321 14.6356 10.8177 14.201 12.0038 14.201C13.1899 14.201 14.3344 14.6356 15.2187 15.4217C16.1029 16.2079 16.8676 17.8278 17 19C17.0164 19.1473 17.0871 19.2834 17.1984 19.382C17.3098 19.4805 17.4539 19.5346 17.603 19.5337H17.6693C17.8273 19.5156 17.9718 19.4361 18.0712 19.3126C18.1706 19.189 18.2168 19.0314 18.1999 18.8741C18.079 17.7924 17.4618 16.2266 16.7979 15.3614C16.134 14.4962 15.2459 13.827 14.2287 13.4256ZM11.9918 12.9998C11.5147 12.9998 11.0484 12.8592 10.6518 12.5956C10.2552 12.332 9.94604 11.9574 9.7635 11.5191C9.58095 11.0808 9.53319 10.5986 9.62625 10.1333C9.71931 9.66799 9.94901 9.2406 10.2863 8.90514C10.6236 8.56969 11.0534 8.34124 11.5212 8.24869C11.9891 8.15614 12.474 8.20364 12.9147 8.38519C13.3554 8.56673 13.7321 8.87417 13.9971 9.26862C14.2621 9.66307 14.4036 10.1268 14.4036 10.6012C14.4036 11.2374 14.1495 11.8475 13.6972 12.2973C13.2449 12.7471 12.6314 12.9998 11.9918 12.9998Z" fill="#ADB1B1"/>
<path d="M21.35 12C21.35 17.1639 17.1639 21.35 12 21.35C6.83614 21.35 2.65 17.1639 2.65 12C2.65 6.83614 6.83614 2.65 12 2.65C17.1639 2.65 21.35 6.83614 21.35 12Z" stroke="#ADB1B1" stroke-width="1.3"/>
</svg>
